MulatAbay-Italic.ufo
<glyph name="plus" format="2">
  <advance width="1161"/>
  <unicode hex="002B"/>
  <note>
uni002B
</note>
  <outline>
    <contour>
      <point x="319" y="146" type="line"/>
      <point x="505" y="146" type="line"/>
      <point x="586" y="606" type="line"/>
      <point x="992" y="606" type="line"/>
      <point x="1023" y="781" type="line"/>
      <point x="617" y="781" type="line"/>
      <point x="692" y="1206" type="line"/>
      <point x="506" y="1206" type="line"/>
      <point x="431" y="781" type="line"/>
      <point x="25" y="781" type="line"/>
      <point x="-6" y="606" type="line"/>
      <point x="400" y="606" type="line"/>
    </contour>
  </outline>
</glyph>
<glyph name="three" format="2">
  <advance width="1150"/>
  <unicode hex="0033"/>
  <note>
uni0033
</note>
  <outline>
    <contour>
      <point x="362" y="-20" type="curve" smooth="yes"/>
      <point x="635" y="-20"/>
      <point x="852" y="145"/>
      <point x="898" y="406" type="curve" smooth="yes"/>
      <point x="928" y="575"/>
      <point x="858" y="696"/>
      <point x="707" y="747" type="curve"/>
      <point x="859" y="806"/>
      <point x="969" y="937"/>
      <point x="992" y="1064" type="curve" smooth="yes"/>
      <point x="1037" y="1323"/>
      <point x="899" y="1476"/>
      <point x="624" y="1476" type="curve" smooth="yes"/>
      <point x="364" y="1476"/>
      <point x="146" y="1305"/>
      <point x="106" y="1074" type="curve"/>
      <point x="291" y="1074" type="line"/>
      <point x="317" y="1225"/>
      <point x="438" y="1324"/>
      <point x="598" y="1324" type="curve" smooth="yes"/>
      <point x="768" y="1324"/>
      <point x="838" y="1239"/>
      <point x="808" y="1068" type="curve" smooth="yes"/>
      <point x="781" y="916"/>
      <point x="658" y="821"/>
      <point x="482" y="818" type="curve" smooth="yes"/>
      <point x="343" y="818" type="line"/>
      <point x="317" y="667" type="line"/>
      <point x="456" y="667" type="line" smooth="yes"/>
      <point x="651" y="664"/>
      <point x="742" y="571"/>
      <point x="712" y="402" type="curve" smooth="yes"/>
      <point x="681" y="227"/>
      <point x="567" y="131"/>
      <point x="388" y="131" type="curve" smooth="yes"/>
      <point x="220" y="131"/>
      <point x="130" y="231"/>
      <point x="157" y="384" type="curve"/>
      <point x="-29" y="384" type="line"/>
      <point x="-72" y="141"/>
      <point x="88" y="-20"/>
    </contour>
  </outline>
</glyph>
<glyph name="B" format="2">
  <advance width="1275"/>
  <unicode hex="0042"/>
  <note>
uni0042
</note>
  <outline>
    <contour>
      <point x="-22" y="0" type="line"/>
      <point x="483" y="0" type="line" smooth="yes"/>
      <point x="793" y="0"/>
      <point x="997" y="159"/>
      <point x="1043" y="420" type="curve" smooth="yes"/>
      <point x="1073" y="591"/>
      <point x="999" y="722"/>
      <point x="849" y="766" type="curve"/>
      <point x="993" y="823"/>
      <point x="1095" y="932"/>
      <point x="1119" y="1068" type="curve" smooth="yes"/>
      <point x="1164" y="1324"/>
      <point x="1027" y="1456"/>
      <point x="711" y="1456" type="curve" smooth="yes"/>
      <point x="235" y="1456" type="line"/>
    </contour>
    <contour>
      <point x="198" y="157" type="line"/>
      <point x="290" y="681" type="line"/>
      <point x="610" y="681" type="line" smooth="yes"/>
      <point x="801" y="681"/>
      <point x="881" y="593"/>
      <point x="850" y="418" type="curve" smooth="yes"/>
      <point x="821" y="255"/>
      <point x="694" y="157"/>
      <point x="515" y="157" type="curve" smooth="yes"/>
    </contour>
    <contour>
      <point x="317" y="835" type="line"/>
      <point x="399" y="1298" type="line"/>
      <point x="683" y="1298" type="line" smooth="yes"/>
      <point x="874" y="1298"/>
      <point x="954" y="1229"/>
      <point x="926" y="1069" type="curve" smooth="yes"/>
      <point x="900" y="925"/>
      <point x="775" y="835"/>
      <point x="607" y="835" type="curve" smooth="yes"/>
    </contour>
  </outline>
</glyph>
<glyph name="C" format="2">
  <advance width="1333"/>
  <unicode hex="0043"/>
  <note>
uni0043
</note>
  <outline>
    <contour>
      <point x="494" y="-20" type="curve" smooth="yes"/>
      <point x="811" y="-20"/>
      <point x="1040" y="154"/>
      <point x="1131" y="462" type="curve"/>
      <point x="938" y="462" type="line"/>
      <point x="858" y="222"/>
      <point x="735" y="137"/>
      <point x="521" y="137" type="curve" smooth="yes"/>
      <point x="284" y="137"/>
      <point x="181" y="338"/>
      <point x="237" y="654" type="curve" smooth="yes"/>
      <point x="261" y="795" type="line" smooth="yes"/>
      <point x="320" y="1130"/>
      <point x="501" y="1318"/>
      <point x="747" y="1318" type="curve" smooth="yes"/>
      <point x="947" y="1318"/>
      <point x="1038" y="1220"/>
      <point x="1030" y="988" type="curve"/>
      <point x="1223" y="988" type="line"/>
      <point x="1247" y="1293"/>
      <point x="1084" y="1476"/>
      <point x="774" y="1476" type="curve" smooth="yes"/>
      <point x="541" y="1476"/>
      <point x="338" y="1362"/>
      <point x="205" y="1157" type="curve" smooth="yes"/>
      <point x="138" y="1054"/>
      <point x="93" y="935"/>
      <point x="69" y="800" type="curve" smooth="yes"/>
      <point x="45" y="660" type="line" smooth="yes"/>
      <point x="-28" y="247"/>
      <point x="150" y="-20"/>
    </contour>
  </outline>
</glyph>
<glyph name="H" format="2">
  <advance width="1460"/>
  <unicode hex="0048"/>
  <note>
uni0048
</note>
  <outline>
    <contour>
      <point x="-22" y="0" type="line"/>
      <point x="170" y="0" type="line"/>
      <point x="289" y="673" type="line"/>
      <point x="1023" y="673" type="line"/>
      <point x="904" y="0" type="line"/>
      <point x="1097" y="0" type="line"/>
      <point x="1354" y="1456" type="line"/>
      <point x="1161" y="1456" type="line"/>
      <point x="1051" y="830" type="line"/>
      <point x="317" y="830" type="line"/>
      <point x="427" y="1456" type="line"/>
      <point x="235" y="1456" type="line"/>
    </contour>
  </outline>
</glyph>
<glyph name="g" format="2">
  <advance width="1149"/>
  <unicode hex="0067"/>
  <note>
uni0067
</note>
  <outline>
    <contour>
      <point x="285" y="-426" type="curve" smooth="yes"/>
      <point x="565" y="-426"/>
      <point x="774" y="-254"/>
      <point x="824" y="26" type="curve" smooth="yes"/>
      <point x="1010" y="1082" type="line"/>
      <point x="841" y="1082" type="line"/>
      <point x="811" y="962" type="line"/>
      <point x="753" y="1055"/>
      <point x="659" y="1102"/>
      <point x="527" y="1102" type="curve" smooth="yes"/>
      <point x="269" y="1102"/>
      <point x="62" y="887"/>
      <point x="2" y="550" type="curve" smooth="yes"/>
      <point x="-60" y="198"/>
      <point x="73" y="-20"/>
      <point x="327" y="-20" type="curve" smooth="yes"/>
      <point x="455" y="-20"/>
      <point x="563" y="23"/>
      <point x="652" y="108" type="curve"/>
      <point x="636" y="15" type="line" smooth="yes"/>
      <point x="603" y="-169"/>
      <point x="479" y="-275"/>
      <point x="299" y="-275" type="curve" smooth="yes"/>
      <point x="184" y="-275"/>
      <point x="96" y="-226"/>
      <point x="34" y="-128" type="curve"/>
      <point x="-82" y="-239" type="line"/>
      <point x="-24" y="-355"/>
      <point x="129" y="-426"/>
    </contour>
    <contour>
      <point x="400" y="137" type="curve" smooth="yes"/>
      <point x="220" y="137"/>
      <point x="141" y="285"/>
      <point x="184" y="529" type="curve" smooth="yes"/>
      <point x="233" y="804"/>
      <point x="365" y="945"/>
      <point x="545" y="945" type="curve" smooth="yes"/>
      <point x="658" y="945"/>
      <point x="734" y="893"/>
      <point x="773" y="790" type="curve"/>
      <point x="685" y="296" type="line"/>
      <point x="612" y="190"/>
      <point x="517" y="137"/>
    </contour>
  </outline>
</glyph>
<glyph name="h" format="2">
  <advance width="1128"/>
  <unicode hex="0068"/>
  <note>
uni0068
</note>
  <outline>
    <contour>
      <point x="-51" y="0" type="line"/>
      <point x="134" y="0" type="line"/>
      <point x="270" y="771" type="line"/>
      <point x="339" y="875"/>
      <point x="445" y="945"/>
      <point x="565" y="945" type="curve" smooth="yes"/>
      <point x="713" y="945"/>
      <point x="768" y="872"/>
      <point x="741" y="716" type="curve" smooth="yes"/>
      <point x="615" y="0" type="line"/>
      <point x="800" y="0" type="line"/>
      <point x="926" y="715" type="line" smooth="yes"/>
      <point x="970" y="973"/>
      <point x="877" y="1102"/>
      <point x="649" y="1102" type="curve" smooth="yes"/>
      <point x="517" y="1102"/>
      <point x="402" y="1052"/>
      <point x="302" y="951" type="curve"/>
      <point x="405" y="1536" type="line"/>
      <point x="220" y="1536" type="line"/>
    </contour>
  </outline>
</glyph>
<glyph name="t" format="2">
  <advance width="669"/>
  <unicode hex="0074"/>
  <note>
uni0074
</note>
  <outline>
    <contour>
      <point x="262" y="-20" type="curve" smooth="yes"/>
      <point x="308" y="-20"/>
      <point x="356" y="-13"/>
      <point x="407" y="0" type="curve"/>
      <point x="434" y="150" type="line"/>
      <point x="395" y="142"/>
      <point x="365" y="138"/>
      <point x="344" y="138" type="curve" smooth="yes"/>
      <point x="257" y="138"/>
      <point x="232" y="181"/>
      <point x="247" y="268" type="curve" smooth="yes"/>
      <point x="366" y="939" type="line"/>
      <point x="568" y="939" type="line"/>
      <point x="593" y="1082" type="line"/>
      <point x="391" y="1082" type="line"/>
      <point x="437" y="1344" type="line"/>
      <point x="252" y="1344" type="line"/>
      <point x="206" y="1082" type="line"/>
      <point x="9" y="1082" type="line"/>
      <point x="-16" y="939" type="line"/>
      <point x="181" y="939" type="line"/>
      <point x="62" y="268" type="line" smooth="yes"/>
      <point x="30" y="84"/>
      <point x="96" y="-20"/>
    </contour>
  </outline>
</glyph>
<glyph name="braceright" format="2">
  <advance width="693"/>
  <unicode hex="007D"/>
  <note>
uni007D
</note>
  <outline>
    <contour>
      <point x="-197" y="-366" type="line"/>
      <point x="48" y="-299"/>
      <point x="196" y="-153"/>
      <point x="240" y="98" type="curve" smooth="yes"/>
      <point x="276" y="300" type="line" smooth="yes"/>
      <point x="305" y="462"/>
      <point x="390" y="543"/>
      <point x="531" y="543" type="curve"/>
      <point x="557" y="688" type="line"/>
      <point x="415" y="688"/>
      <point x="359" y="768"/>
      <point x="387" y="927" type="curve" smooth="yes"/>
      <point x="424" y="1137" type="line" smooth="yes"/>
      <point x="466" y="1384"/>
      <point x="373" y="1530"/>
      <point x="149" y="1597" type="curve"/>
      <point x="91" y="1482" type="line"/>
      <point x="222" y="1437"/>
      <point x="271" y="1321"/>
      <point x="238" y="1133" type="curve" smooth="yes"/>
      <point x="202" y="930" type="line" smooth="yes"/>
      <point x="175" y="775"/>
      <point x="217" y="670"/>
      <point x="328" y="615" type="curve"/>
      <point x="197" y="559"/>
      <point x="118" y="454"/>
      <point x="91" y="300" type="curve" smooth="yes"/>
      <point x="52" y="80" type="line" smooth="yes"/>
      <point x="16" y="-97"/>
      <point x="-73" y="-208"/>
      <point x="-216" y="-251" type="curve"/>
    </contour>
  </outline>
</glyph>
<glyph name="copyright" format="2">
  <advance width="1609"/>
  <unicode hex="00A9"/>
  <note>
uni00A9
</note>
  <outline>
    <contour>
      <point x="607" y="-21" type="curve" smooth="yes"/>
      <point x="871" y="-21"/>
      <point x="1132" y="131"/>
      <point x="1293" y="360" type="curve" smooth="yes"/>
      <point x="1373" y="475"/>
      <point x="1425" y="598"/>
      <point x="1448" y="729" type="curve" smooth="yes"/>
      <point x="1495" y="998"/>
      <point x="1407" y="1244"/>
      <point x="1210" y="1377" type="curve" smooth="yes"/>
      <point x="1112" y="1443"/>
      <point x="998" y="1476"/>
      <point x="870" y="1476" type="curve" smooth="yes"/>
      <point x="614" y="1476"/>
      <point x="354" y="1335"/>
      <point x="188" y="1104" type="curve" smooth="yes"/>
      <point x="106" y="989"/>
      <point x="53" y="864"/>
      <point x="29" y="729" type="curve" smooth="yes"/>
      <point x="-18" y="464"/>
      <point x="66" y="221"/>
      <point x="262" y="83" type="curve" smooth="yes"/>
      <point x="360" y="14"/>
      <point x="475" y="-21"/>
    </contour>
    <contour>
      <point x="647" y="283" type="curve" smooth="yes"/>
      <point x="858" y="283"/>
      <point x="998" y="393"/>
      <point x="1033" y="597" type="curve"/>
      <point x="887" y="597" type="line"/>
      <point x="864" y="462"/>
      <point x="793" y="412"/>
      <point x="670" y="412" type="curve" smooth="yes"/>
      <point x="545" y="412"/>
      <point x="485" y="510"/>
      <point x="513" y="670" type="curve" smooth="yes"/>
      <point x="533" y="783" type="line" smooth="yes"/>
      <point x="562" y="947"/>
      <point x="656" y="1044"/>
      <point x="781" y="1044" type="curve" smooth="yes"/>
      <point x="903" y="1044"/>
      <point x="958" y="992"/>
      <point x="935" y="860" type="curve"/>
      <point x="1081" y="860" type="line"/>
      <point x="1116" y="1059"/>
      <point x="1017" y="1173"/>
      <point x="804" y="1173" type="curve" smooth="yes"/>
      <point x="597" y="1173"/>
      <point x="431" y="1021"/>
      <point x="390" y="786" type="curve" smooth="yes"/>
      <point x="370" y="676" type="line" smooth="yes"/>
      <point x="328" y="433"/>
      <point x="438" y="283"/>
    </contour>
    <contour>
      <point x="627" y="98" type="curve" smooth="yes"/>
      <point x="414" y="98"/>
      <point x="240" y="215"/>
      <point x="168" y="411" type="curve" smooth="yes"/>
      <point x="131" y="508"/>
      <point x="124" y="614"/>
      <point x="144" y="729" type="curve" smooth="yes"/>
      <point x="184" y="956"/>
      <point x="333" y="1164"/>
      <point x="537" y="1274" type="curve" smooth="yes"/>
      <point x="638" y="1329"/>
      <point x="743" y="1356"/>
      <point x="849" y="1356" type="curve" smooth="yes"/>
      <point x="1064" y="1356"/>
      <point x="1238" y="1237"/>
      <point x="1309" y="1044" type="curve" smooth="yes"/>
      <point x="1345" y="947"/>
      <point x="1353" y="842"/>
      <point x="1333" y="729" type="curve" smooth="yes"/>
      <point x="1292" y="500"/>
      <point x="1142" y="292"/>
      <point x="939" y="181" type="curve" smooth="yes"/>
      <point x="838" y="126"/>
      <point x="734" y="98"/>
    </contour>
  </outline>
</glyph>
<glyph name="Thorn" format="2">
  <advance width="1210"/>
  <unicode hex="00DE"/>
  <note>
uni00DE
</note>
  <outline>
    <contour>
      <point x="-25" y="0" type="line"/>
      <point x="161" y="0" type="line"/>
      <point x="216" y="313" type="line"/>
      <point x="490" y="313" type="line" smooth="yes"/>
      <point x="793" y="313"/>
      <point x="1011" y="479"/>
      <point x="1056" y="738" type="curve" smooth="yes"/>
      <point x="1086" y="906"/>
      <point x="1027" y="1041"/>
      <point x="893" y="1111" type="curve" smooth="yes"/>
      <point x="826" y="1146"/>
      <point x="743" y="1163"/>
      <point x="645" y="1163" type="curve" smooth="yes"/>
      <point x="366" y="1163" type="line"/>
      <point x="418" y="1456" type="line"/>
      <point x="232" y="1456" type="line"/>
    </contour>
    <contour>
      <point x="243" y="465" type="line"/>
      <point x="339" y="1011" type="line"/>
      <point x="622" y="1011" type="line" smooth="yes"/>
      <point x="804" y="1010"/>
      <point x="899" y="900"/>
      <point x="870" y="736" type="curve" smooth="yes"/>
      <point x="842" y="576"/>
      <point x="710" y="465"/>
      <point x="520" y="465" type="curve" smooth="yes"/>
    </contour>
  </outline>
</glyph>
<glyph name="oslash" format="2">
  <advance width="1168"/>
  <unicode hex="00F8"/>
  <note>
uni00F8
</note>
  <outline>
    <contour>
      <point x="390" y="-20" type="curve" smooth="yes"/>
      <point x="701" y="-20"/>
      <point x="925" y="223"/>
      <point x="978" y="529" type="curve" smooth="yes"/>
      <point x="1040" y="881"/>
      <point x="880" y="1102"/>
      <point x="586" y="1102" type="curve" smooth="yes"/>
      <point x="279" y="1102"/>
      <point x="51" y="856"/>
      <point x="-3" y="551" type="curve" smooth="yes"/>
      <point x="-64" y="202"/>
      <point x="96" y="-20"/>
    </contour>
    <contour>
      <point x="416" y="131" type="curve" smooth="yes"/>
      <point x="230" y="131"/>
      <point x="137" y="289"/>
      <point x="179" y="529" type="curve" smooth="yes"/>
      <point x="227" y="800"/>
      <point x="376" y="950"/>
      <point x="559" y="950" type="curve" smooth="yes"/>
      <point x="745" y="950"/>
      <point x="839" y="788"/>
      <point x="797" y="551" type="curve" smooth="yes"/>
      <point x="751" y="286"/>
      <point x="604" y="131"/>
    </contour>
    <contour>
      <point x="-36" y="-245" type="line"/>
      <point x="123" y="-245" type="line"/>
      <point x="1009" y="1336" type="line"/>
      <point x="851" y="1336" type="line"/>
    </contour>
  </outline>
</glyph>
<glyph name="thorn" format="2">
  <advance width="1180"/>
  <unicode hex="00FE"/>
  <note>
uni00FE
</note>
  <outline>
    <contour>
      <point x="-115" y="-416" type="line"/>
      <point x="70" y="-416" type="line"/>
      <point x="162" y="105" type="line"/>
      <point x="222" y="22"/>
      <point x="318" y="-20"/>
      <point x="450" y="-20" type="curve" smooth="yes"/>
      <point x="707" y="-20"/>
      <point x="907" y="200"/>
      <point x="965" y="529" type="curve" smooth="yes"/>
      <point x="968" y="546" type="line" smooth="yes"/>
      <point x="1030" y="895"/>
      <point x="905" y="1102"/>
      <point x="645" y="1102" type="curve" smooth="yes"/>
      <point x="515" y="1102"/>
      <point x="405" y="1058"/>
      <point x="314" y="970" type="curve"/>
      <point x="414" y="1536" type="line"/>
      <point x="229" y="1536" type="line"/>
    </contour>
    <contour>
      <point x="420" y="131" type="curve" smooth="yes"/>
      <point x="306" y="131"/>
      <point x="230" y="180"/>
      <point x="192" y="279" type="curve"/>
      <point x="284" y="796" type="line"/>
      <point x="357" y="895"/>
      <point x="450" y="945"/>
      <point x="562" y="945" type="curve" smooth="yes"/>
      <point x="743" y="945"/>
      <point x="827" y="794"/>
      <point x="784" y="550" type="curve" smooth="yes"/>
      <point x="735" y="273"/>
      <point x="598" y="131"/>
    </contour>
  </outline>
</glyph>
<glyph name="period-ethiopic" format="2">
  <advance width="965"/>
  <unicode hex="1362"/>
  <outline>
    <contour>
      <point x="582" y="532" type="curve" smooth="yes"/>
      <point x="658" y="532"/>
      <point x="706" y="579"/>
      <point x="717" y="640" type="curve" smooth="yes"/>
      <point x="728" y="704"/>
      <point x="697" y="752"/>
      <point x="621" y="752" type="curve" smooth="yes"/>
      <point x="545" y="752"/>
      <point x="498" y="704"/>
      <point x="487" y="640" type="curve" smooth="yes"/>
      <point x="476" y="579"/>
      <point x="506" y="532"/>
    </contour>
    <contour>
      <point x="85" y="-11" type="curve" smooth="yes"/>
      <point x="161" y="-11"/>
      <point x="210" y="36"/>
      <point x="220" y="97" type="curve" smooth="yes"/>
      <point x="232" y="161"/>
      <point x="200" y="209"/>
      <point x="124" y="209" type="curve" smooth="yes"/>
      <point x="48" y="209"/>
      <point x="2" y="161"/>
      <point x="-10" y="97" type="curve" smooth="yes"/>
      <point x="-20" y="36"/>
      <point x="9" y="-11"/>
    </contour>
    <contour>
      <point x="485" y="-11" type="curve" smooth="yes"/>
      <point x="561" y="-11"/>
      <point x="610" y="36"/>
      <point x="620" y="97" type="curve" smooth="yes"/>
      <point x="632" y="161"/>
      <point x="600" y="209"/>
      <point x="524" y="209" type="curve" smooth="yes"/>
      <point x="448" y="209"/>
      <point x="402" y="161"/>
      <point x="390" y="97" type="curve" smooth="yes"/>
      <point x="380" y="36"/>
      <point x="409" y="-11"/>
    </contour>
    <contour>
      <point x="182" y="532" type="curve" smooth="yes"/>
      <point x="258" y="532"/>
      <point x="306" y="579"/>
      <point x="317" y="640" type="curve" smooth="yes"/>
      <point x="328" y="704"/>
      <point x="297" y="752"/>
      <point x="221" y="752" type="curve" smooth="yes"/>
      <point x="145" y="752"/>
      <point x="98" y="704"/>
      <point x="87" y="640" type="curve" smooth="yes"/>
      <point x="76" y="579"/>
      <point x="106" y="532"/>
    </contour>
  </outline>
</glyph>
<glyph name="question-ethiopic" format="2">
  <advance width="556"/>
  <unicode hex="1367"/>
  <outline>
    <contour>
      <point x="169" y="456" type="curve" smooth="yes"/>
      <point x="236" y="456"/>
      <point x="302" y="511"/>
      <point x="314" y="579" type="curve" smooth="yes"/>
      <point x="326" y="646"/>
      <point x="279" y="703"/>
      <point x="212" y="703" type="curve" smooth="yes"/>
      <point x="144" y="703"/>
      <point x="79" y="646"/>
      <point x="67" y="579" type="curve" smooth="yes"/>
      <point x="55" y="511"/>
      <point x="101" y="456"/>
    </contour>
    <component base="period" xOffset="20"/>
    <component base="period" xOffset="21" yOffset="883"/>
  </outline>
</glyph>
<glyph name="two-ethiopic" format="2">
  <advance width="1361"/>
  <unicode hex="136A"/>
  <outline>
    <contour>
      <point x="588" y="-54" type="curve" smooth="yes"/>
      <point x="861" y="-54"/>
      <point x="1078" y="111"/>
      <point x="1124" y="372" type="curve" smooth="yes"/>
      <point x="1154" y="541"/>
      <point x="1084" y="662"/>
      <point x="933" y="713" type="curve"/>
      <point x="1085" y="772"/>
      <point x="1195" y="903"/>
      <point x="1218" y="1030" type="curve" smooth="yes"/>
      <point x="1263" y="1289"/>
      <point x="1125" y="1442"/>
      <point x="850" y="1442" type="curve" smooth="yes"/>
      <point x="590" y="1442"/>
      <point x="372" y="1271"/>
      <point x="332" y="1040" type="curve" smooth="yes"/>
      <point x="197" y="350" type="line" smooth="yes"/>
      <point x="154" y="107"/>
      <point x="314" y="-54"/>
    </contour>
    <contour>
      <point x="614" y="97" type="curve" smooth="yes"/>
      <point x="446" y="97"/>
      <point x="356" y="197"/>
      <point x="383" y="350" type="curve" smooth="yes"/>
      <point x="517" y="1040" type="line" smooth="yes"/>
      <point x="543" y="1191"/>
      <point x="664" y="1290"/>
      <point x="824" y="1290" type="curve" smooth="yes"/>
      <point x="994" y="1290"/>
      <point x="1064" y="1205"/>
      <point x="1034" y="1034" type="curve" smooth="yes"/>
      <point x="1007" y="882"/>
      <point x="884" y="787"/>
      <point x="708" y="784" type="curve" smooth="yes"/>
      <point x="569" y="784" type="line"/>
      <point x="543" y="633" type="line"/>
      <point x="682" y="633" type="line" smooth="yes"/>
      <point x="877" y="630"/>
      <point x="968" y="537"/>
      <point x="938" y="368" type="curve" smooth="yes"/>
      <point x="907" y="193"/>
      <point x="793" y="97"/>
    </contour>
    <component base="_num.bar" xOffset="113"/>
  </outline>
</glyph>
<glyph name="five-ethiopic" format="2">
  <advance width="1226"/>
  <unicode hex="136D"/>
  <outline>
    <contour>
      <point x="-68" y="-60" type="line"/>
      <point x="916" y="-60" type="line"/>
      <point x="942" y="92" type="line"/>
      <point x="154" y="92" type="line"/>
      <point x="384" y="1396" type="line"/>
      <point x="188" y="1396" type="line"/>
    </contour>
    <component base="_num.bar" xOffset="54"/>
  </outline>
</glyph>
<glyph name="eight-ethiopic" format="2">
  <advance width="1292"/>
  <unicode hex="1370"/>
  <outline>
    <contour>
      <point x="522" y="-30" type="line"/>
      <point x="937" y="-30" type="line"/>
      <point x="964" y="122" type="line"/>
      <point x="549" y="122" type="line"/>
    </contour>
    <contour>
      <point x="337" y="-30" type="line"/>
      <point x="523" y="-30" type="line"/>
      <point x="781" y="1433" type="line"/>
      <point x="222" y="1433" type="line"/>
      <point x="192" y="1266" type="line"/>
      <point x="565" y="1266" type="line"/>
    </contour>
    <component base="_num.bar" xOffset="77"/>
  </outline>
</glyph>
<glyph name="thirty-ethiopic" format="2">
  <advance width="1354"/>
  <unicode hex="1374"/>
  <outline>
    <contour>
      <point x="6" y="-40" type="line"/>
      <point x="202" y="-40" type="line"/>
      <point x="432" y="1264" type="line"/>
      <point x="636" y="1264" type="line"/>
      <point x="406" y="-40" type="line"/>
      <point x="746" y="-40" type="line" smooth="yes"/>
      <point x="864" y="-40"/>
      <point x="965" y="46"/>
      <point x="986" y="164" type="curve" smooth="yes"/>
      <point x="1206" y="1416" type="line"/>
      <point x="1010" y="1416" type="line"/>
      <point x="780" y="112" type="line"/>
      <point x="609" y="112" type="line"/>
      <point x="839" y="1415" type="line"/>
      <point x="466" y="1416" type="line" smooth="yes"/>
      <point x="348" y="1416"/>
      <point x="247" y="1330"/>
      <point x="226" y="1212" type="curve" smooth="yes"/>
    </contour>
    <component base="_num.bar" xOffset="95"/>
  </outline>
</glyph>
<glyph name="sixty-ethiopic" format="2">
  <advance width="1150"/>
  <unicode hex="1377"/>
  <outline>
    <contour>
      <point x="399" y="0" type="line"/>
      <point x="958" y="0" type="line"/>
      <point x="986" y="160" type="line"/>
      <point x="613" y="160" type="line"/>
      <point x="723" y="782" type="line"/>
      <point x="556" y="782" type="line"/>
      <point x="668" y="1417" type="line"/>
      <point x="109" y="1417" type="line"/>
      <point x="77" y="1236" type="line"/>
      <point x="450" y="1236" type="line"/>
      <point x="340" y="612" type="line"/>
      <point x="507" y="612" type="line"/>
    </contour>
    <component base="_num.bar"/>
  </outline>
</glyph>
<glyph name="ninety-ethiopic" format="2">
  <advance width="1354"/>
  <unicode hex="137A"/>
  <outline>
    <contour>
      <point x="725" y="-4" type="line"/>
      <point x="889" y="-4" type="line"/>
      <point x="766" y="635" type="line"/>
      <point x="1200" y="1331" type="line"/>
      <point x="1218" y="1435" type="line"/>
      <point x="234" y="1435" type="line"/>
      <point x="207" y="1283" type="line"/>
      <point x="995" y="1283" type="line"/>
      <point x="584" y="637" type="line"/>
    </contour>
    <component base="_num.bar" xOffset="95"/>
  </outline>
</glyph>
<glyph name="quotesinglbase" format="2">
  <advance width="407"/>
  <unicode hex="201A"/>
  <note>
uni201A
</note>
  <outline>
    <contour>
      <point x="-100" y="-283" type="line"/>
      <point x="15" y="-202"/>
      <point x="115" y="-54"/>
      <point x="138" y="81" type="curve" smooth="yes"/>
      <point x="156" y="181" type="line"/>
      <point x="-29" y="181" type="line"/>
      <point x="-50" y="63" type="line" smooth="yes"/>
      <point x="-69" y="-34"/>
      <point x="-116" y="-125"/>
      <point x="-192" y="-210" type="curve"/>
    </contour>
  </outline>
</glyph>
<glyph name="quotedblbase" format="2">
  <advance width="705"/>
  <unicode hex="201E"/>
  <note>
uni201E
</note>
  <outline>
    <contour>
      <point x="193" y="-301" type="line"/>
      <point x="313" y="-212"/>
      <point x="411" y="-61"/>
      <point x="436" y="82" type="curve" smooth="yes"/>
      <point x="465" y="246" type="line"/>
      <point x="279" y="246" type="line"/>
      <point x="246" y="61" type="line" smooth="yes"/>
      <point x="226" y="-41"/>
      <point x="178" y="-138"/>
      <point x="101" y="-229" type="curve"/>
    </contour>
    <contour>
      <point x="-103" y="-301" type="line"/>
      <point x="12" y="-216"/>
      <point x="113" y="-62"/>
      <point x="139" y="82" type="curve" smooth="yes"/>
      <point x="168" y="246" type="line"/>
      <point x="-17" y="246" type="line"/>
      <point x="-50" y="61" type="line" smooth="yes"/>
      <point x="-70" y="-41"/>
      <point x="-118" y="-138"/>
      <point x="-195" y="-229" type="curve"/>
    </contour>
  </outline>
</glyph>
<glyph name="bullet" format="2">
  <advance width="690"/>
  <unicode hex="2022"/>
  <note>
uni2022
</note>
  <outline>
    <contour>
      <point x="246" y="535" type="curve" smooth="yes"/>
      <point x="371" y="535"/>
      <point x="464" y="616"/>
      <point x="484" y="732" type="curve" smooth="yes"/>
      <point x="491" y="769" type="line" smooth="yes"/>
      <point x="513" y="893"/>
      <point x="443" y="971"/>
      <point x="321" y="971" type="curve" smooth="yes"/>
      <point x="199" y="971"/>
      <point x="104" y="888"/>
      <point x="83" y="772" type="curve" smooth="yes"/>
      <point x="77" y="734" type="line" smooth="yes"/>
      <point x="56" y="617"/>
      <point x="122" y="535"/>
    </contour>
  </outline>
</glyph>
<glyph name="product" format="2">
  <advance width="1422"/>
  <unicode hex="220F"/>
  <note>
uni220F
</note>
  <outline>
    <contour>
      <point x="-59" y="-213" type="line"/>
      <point x="126" y="-213" type="line"/>
      <point x="393" y="1304" type="line"/>
      <point x="1107" y="1304" type="line"/>
      <point x="840" y="-213" type="line"/>
      <point x="1025" y="-213" type="line"/>
      <point x="1319" y="1456" type="line"/>
      <point x="235" y="1456" type="line"/>
    </contour>
  </outline>
</glyph>
<glyph name="uniEE02" format="2">
  <advance width="655"/>
  <unicode hex="EE02"/>
  <note>
uniEE02
</note>
  <outline>
    <contour>
      <point x="343" y="633" type="line"/>
      <point x="484" y="633" type="line"/>
      <point x="563" y="1082" type="line"/>
      <point x="422" y="1082" type="line"/>
    </contour>
    <contour>
      <point x="31" y="633" type="line"/>
      <point x="172" y="633" type="line"/>
      <point x="251" y="1082" type="line"/>
      <point x="110" y="1082" type="line"/>
    </contour>
  </outline>
</glyph>
<glyph name="uniF6C3" format="2">
  <advance width="515"/>
  <unicode hex="F6C3"/>
  <note>
uniF6C3
</note>
  <outline>
    <contour>
      <point x="-22" y="-161" type="line"/>
      <point x="80" y="-89"/>
      <point x="160" y="42"/>
      <point x="181" y="163" type="curve" smooth="yes"/>
      <point x="194" y="239" type="line"/>
      <point x="17" y="239" type="line"/>
      <point x="1" y="147" type="line" smooth="yes"/>
      <point x="-15" y="62"/>
      <point x="-54" y="-16"/>
      <point x="-114" y="-89" type="curve"/>
    </contour>
  </outline>
</glyph>
<glyph name="_num.bar" format="2">
  <advance width="1126"/>
  <outline>
    <contour>
      <point x="66" y="1458" type="line" name="❌"/>
      <point x="1192" y="1458" type="line" name="❌"/>
      <point x="1219" y="1607" type="line"/>
      <point x="93" y="1607" type="line"/>
    </contour>
    <contour>
      <point x="-230" y="-222" type="line"/>
      <point x="896" y="-222" type="line"/>
      <point x="922" y="-73" type="line"/>
      <point x="-204" y="-73" type="line"/>
    </contour>
  </outline>
</glyph>
<glyph name="_smart.cha" format="2">
  <anchor x="-190" y="34" name="_cha"/>
  <outline>
    <contour>
      <point x="-740" y="-19"/>
      <point x="-521" y="-17"/>
      <point x="-495" y="124" type="curve" smooth="yes"/>
      <point x="-468" y="269"/>
      <point x="-687" y="269"/>
      <point x="-714" y="124" type="curve" smooth="yes"/>
    </contour>
    <contour>
      <point x="155" y="-28"/>
      <point x="376" y="-22"/>
      <point x="401" y="117" type="curve" smooth="yes"/>
      <point x="425" y="260"/>
      <point x="206" y="260"/>
      <point x="182" y="117" type="curve" smooth="yes"/>
    </contour>
  </outline>
</glyph>
<glyph name="_smart.da" format="2">
  <anchor x="-159" y="156" name="_da"/>
  <outline>
    <contour>
      <point x="-144" y="-3" type="line" name="❌"/>
      <point x="634" y="-3" type="line" name="❌"/>
      <point x="660" y="148" type="line"/>
      <point x="-118" y="148" type="line"/>
    </contour>
  </outline>
</glyph>
<glyph name="_smart.eGl" format="2">
  <anchor x="231" y="1360" name="_eGl"/>
  <anchor x="726" y="60" name="_hee"/>
  <anchor x="1062.5" y="673" name="_hu"/>
  <outline>
    <contour>
      <point x="68" y="1343" type="line"/>
      <point x="197" y="1418" type="line"/>
      <point x="327" y="1832" type="line"/>
      <point x="133" y="1720" type="line"/>
    </contour>
  </outline>
</glyph>
<glyph name="_smart.fa" format="2">
  <anchor x="252" y="54" name="_fa"/>
  <outline>
    <contour>
      <point x="344" y="551" type="line"/>
      <point x="79" y="551" type="line"/>
      <point x="66" y="476" type="line"/>
      <point x="173" y="476" type="line"/>
      <point x="98" y="55" type="line"/>
      <point x="256" y="55" type="line"/>
    </contour>
  </outline>
</glyph>
<glyph name="_smart.ho.ring" format="2">
  <anchor x="96" y="1111" name="_ho.ring"/>
  <outline>
    <contour>
      <point x="-266" y="894" type="curve" smooth="yes"/>
      <point x="-99" y="894"/>
      <point x="27" y="1019"/>
      <point x="27" y="1176" type="curve" smooth="yes"/>
      <point x="27" y="1331"/>
      <point x="-95" y="1452"/>
      <point x="-266" y="1452" type="curve" smooth="yes"/>
      <point x="-431" y="1452"/>
      <point x="-552" y="1333"/>
      <point x="-552" y="1176" type="curve" smooth="yes"/>
      <point x="-552" y="1016"/>
      <point x="-428" y="894"/>
    </contour>
    <contour>
      <point x="-316" y="1030" type="curve" smooth="yes"/>
      <point x="-426" y="1030"/>
      <point x="-510" y="1119"/>
      <point x="-510" y="1231" type="curve" smooth="yes"/>
      <point x="-510" y="1357"/>
      <point x="-412" y="1421"/>
      <point x="-311" y="1422" type="curve" smooth="yes"/>
      <point x="-213" y="1422"/>
      <point x="-112" y="1358"/>
      <point x="-112" y="1231" type="curve" smooth="yes"/>
      <point x="-112" y="1125"/>
      <point x="-200" y="1030"/>
    </contour>
  </outline>
</glyph>
<glyph name="_smart.ka.caps" format="2">
  <anchor x="-965" y="1459" name="_ka.caps"/>
  <outline>
    <contour>
      <point x="-1200" y="1387" type="line"/>
      <point x="-608" y="1397" type="line"/>
      <point x="-608" y="1479" type="line" name="❌"/>
      <point x="-955" y="1459" type="line" name="❌"/>
      <point x="-869" y="1807" type="line"/>
      <point x="-1102" y="1807" type="line"/>
    </contour>
  </outline>
</glyph>
<glyph name="_smart.nose.extend" format="2">
  <anchor x="-54" y="1040" name="_nose.extend"/>
  <outline>
    <contour>
      <point x="-54" y="1040" type="line"/>
      <point x="-54" y="824" type="line"/>
      <point x="20" y="824" type="line"/>
      <point x="20" y="1040" type="line"/>
    </contour>
  </outline>
</glyph>
<glyph name="_smart.nose" format="2">
  <anchor x="80" y="101" name="_nose"/>
  <outline>
    <contour>
      <point x="-30" y="-148" type="curve" smooth="yes"/>
      <point x="37" y="-148"/>
      <point x="104" y="-93"/>
      <point x="116" y="-25" type="curve" smooth="yes"/>
      <point x="128" y="42"/>
      <point x="81" y="99"/>
      <point x="14" y="99" type="curve" smooth="yes"/>
      <point x="-54" y="99"/>
      <point x="-119" y="42"/>
      <point x="-131" y="-25" type="curve" smooth="yes"/>
      <point x="-143" y="-93"/>
      <point x="-98" y="-148"/>
    </contour>
  </outline>
</glyph>
<glyph name="_smart.ye" format="2">
  <advance width="927"/>
  <anchor x="340" y="44" name="_ye"/>
  <outline>
    <contour>
      <point x="98" y="-266" type="curve"/>
      <point x="221" y="-251" type="line"/>
      <point x="225" y="-185"/>
      <point x="271" y="-132"/>
      <point x="326" y="-125" type="curve" smooth="yes"/>
      <point x="452" y="-110"/>
      <point x="720" y="-181"/>
      <point x="866" y="-163" type="curve" smooth="yes"/>
      <point x="998" y="-147"/>
      <point x="1071" y="71"/>
      <point x="1079" y="217" type="curve"/>
      <point x="957" y="214" type="line"/>
      <point x="953" y="154"/>
      <point x="931" y="12"/>
      <point x="865" y="-22" type="curve" smooth="yes"/>
      <point x="764" y="-74"/>
      <point x="443" y="32"/>
      <point x="324" y="17" type="curve" smooth="yes"/>
      <point x="201" y="2"/>
      <point x="106" y="-114"/>
    </contour>
  </outline>
</glyph>
<glyph name="_smart.yee" format="2">
  <anchor x="-52" y="338" name="_yee"/>
  <outline>
    <contour>
      <point x="128" y="134" type="curve" smooth="yes"/>
      <point x="249" y="134"/>
      <point x="358" y="222"/>
      <point x="378" y="338" type="curve" smooth="yes"/>
      <point x="399" y="453"/>
      <point x="323" y="546"/>
      <point x="200" y="546" type="curve" smooth="yes"/>
      <point x="77" y="546"/>
      <point x="-31" y="453"/>
      <point x="-52" y="338" type="curve" smooth="yes"/>
      <point x="-72" y="223"/>
      <point x="5" y="134"/>
    </contour>
    <contour>
      <point x="143" y="223" type="curve" smooth="yes"/>
      <point x="78" y="223"/>
      <point x="36" y="275"/>
      <point x="47" y="338" type="curve" smooth="yes"/>
      <point x="59" y="402"/>
      <point x="118" y="456"/>
      <point x="184" y="456" type="curve" smooth="yes"/>
      <point x="261" y="456"/>
      <point x="289" y="398"/>
      <point x="279" y="340" type="curve" smooth="yes"/>
      <point x="269" y="282"/>
      <point x="220" y="223"/>
    </contour>
  </outline>
</glyph>
<glyph name="ba.base.cap" format="2">
  <advance width="1341"/>
  <anchor x="944" y="-25" name="haa"/>
  <anchor x="1041" y="1648" name="hat.caps"/>
  <anchor x="348" y="1685" name="hat.left"/>
  <anchor x="690" y="1481" name="he.acute.top"/>
  <anchor x="259" y="772" name="he.left.inner"/>
  <anchor x="22" y="764" name="he.left.outer"/>
  <anchor x="889" y="49" name="hee"/>
  <anchor x="997" y="93" name="hi"/>
  <anchor x="30" y="-29" name="ho"/>
  <anchor x="28" y="26" name="ho.caps"/>
  <anchor x="1175" y="866" name="hu"/>
  <anchor x="921" y="-22" name="hwa"/>
  <anchor x="350" y="1455" name="ka.caps"/>
  <anchor x="731" y="1475" name="neck.caps"/>
  <outline>
    <contour>
      <point x="-50" y="0" type="line"/>
      <point x="142" y="0" type="line"/>
      <point x="316" y="986" type="line" smooth="yes"/>
      <point x="353" y="1197"/>
      <point x="493" y="1319"/>
      <point x="708" y="1319" type="curve" smooth="yes"/>
      <point x="925" y="1319"/>
      <point x="1022" y="1198"/>
      <point x="985" y="987" type="curve" smooth="yes"/>
      <point x="811" y="0" type="line"/>
      <point x="1016" y="0" type="line"/>
      <point x="1191" y="990" type="line" smooth="yes"/>
      <point x="1240" y="1265"/>
      <point x="1039" y="1476"/>
      <point x="735" y="1476" type="curve" smooth="yes"/>
      <point x="417" y="1476"/>
      <point x="178" y="1293"/>
      <point x="125" y="992" type="curve" smooth="yes"/>
    </contour>
  </outline>
</glyph>
<glyph name="fi-ethiopic.liga" format="2">
  <advance width="1102"/>
  <anchor x="598" y="151" name="fa"/>
  <anchor x="556" y="3" name="haa"/>
  <anchor x="481" y="-5" name="haa.acute"/>
  <anchor x="365" y="1360" name="hat.left"/>
  <anchor x="895" y="80" name="hee"/>
  <outline>
    <contour>
      <point x="889" y="157" type="line"/>
      <point x="902" y="446" type="line"/>
      <point x="696" y="504" type="line"/>
      <point x="817" y="151" type="line"/>
    </contour>
    <component base="ra.base.cap"/>
    <component base="_smart.fa" xOffset="279" yOffset="97"/>
  </outline>
</glyph>
<glyph name="ga.base.cap" format="2">
  <advance width="982"/>
  <anchor x="511" y="8" name="haa.acute"/>
  <anchor x="660" y="1663" name="hat.caps"/>
  <anchor x="116" y="1305" name="he.ring.uniq"/>
  <anchor x="484" y="11" name="hee"/>
  <anchor x="646" y="88" name="hi"/>
  <anchor x="456" y="1464" name="ho"/>
  <anchor x="499" y="1315" name="ho.ring"/>
  <anchor x="782" y="955" name="hu"/>
  <anchor x="421" y="1463" name="neck.caps"/>
  <anchor x="199" y="1442" name="neck.left.caps"/>
  <anchor x="134" y="1625" name="nose"/>
  <outline>
    <contour>
      <point x="426" y="0" type="line"/>
      <point x="619" y="0" type="line"/>
      <point x="858" y="1354" type="line" smooth="yes"/>
      <point x="868" y="1413"/>
      <point x="833" y="1456"/>
      <point x="774" y="1456" type="curve" smooth="yes"/>
      <point x="123" y="1456" type="line"/>
      <point x="95" y="1299" type="line"/>
      <point x="655" y="1299" type="line"/>
    </contour>
  </outline>
</glyph>
<glyph name="longs_t" format="2">
  <advance width="1262"/>
  <note>
glyph00448
</note>
  <outline>
    <contour>
      <point x="842" y="-20" type="curve" smooth="yes"/>
      <point x="888" y="-20"/>
      <point x="937" y="-13"/>
      <point x="988" y="0" type="curve"/>
      <point x="1015" y="150" type="line"/>
      <point x="978" y="142"/>
      <point x="948" y="138"/>
      <point x="925" y="138" type="curve" smooth="yes"/>
      <point x="838" y="138"/>
      <point x="813" y="181"/>
      <point x="828" y="268" type="curve" smooth="yes"/>
      <point x="947" y="939" type="line"/>
      <point x="1149" y="939" type="line"/>
      <point x="1174" y="1082" type="line"/>
      <point x="972" y="1082" type="line"/>
      <point x="1038" y="1456" type="line"/>
      <point x="928" y="1515"/>
      <point x="778" y="1557"/>
      <point x="654" y="1557" type="curve" smooth="yes"/>
      <point x="440" y="1557"/>
      <point x="291" y="1425"/>
      <point x="251" y="1194" type="curve" smooth="yes"/>
      <point x="231" y="1082" type="line"/>
      <point x="60" y="1082" type="line"/>
      <point x="35" y="939" type="line"/>
      <point x="206" y="939" type="line"/>
      <point x="40" y="0" type="line"/>
      <point x="225" y="0" type="line"/>
      <point x="434" y="1184" type="line" smooth="yes"/>
      <point x="460" y="1331"/>
      <point x="534" y="1405"/>
      <point x="656" y="1405" type="curve" smooth="yes"/>
      <point x="747" y="1399"/>
      <point x="799" y="1388"/>
      <point x="837" y="1369" type="curve"/>
      <point x="786" y="1082" type="line"/>
      <point x="589" y="1082" type="line"/>
      <point x="564" y="939" type="line"/>
      <point x="761" y="939" type="line"/>
      <point x="642" y="268" type="line" smooth="yes"/>
      <point x="610" y="84"/>
      <point x="676" y="-20"/>
    </contour>
  </outline>
</glyph>
<glyph name="nine.frac0" format="2">
  <advance width="751"/>
  <note>
glyph00549
</note>
  <outline>
    <contour>
      <point x="17" y="-7" type="line"/>
      <point x="72" y="-6" type="line" smooth="yes"/>
      <point x="339" y="7"/>
      <point x="497" y="151"/>
      <point x="545" y="426" type="curve" smooth="yes"/>
      <point x="556" y="487" type="line" smooth="yes"/>
      <point x="587" y="684"/>
      <point x="498" y="800"/>
      <point x="315" y="800" type="curve" smooth="yes"/>
      <point x="143" y="800"/>
      <point x="2" y="680"/>
      <point x="-26" y="519" type="curve" smooth="yes"/>
      <point x="-56" y="351"/>
      <point x="29" y="255"/>
      <point x="186" y="255" type="curve" smooth="yes"/>
      <point x="254" y="255"/>
      <point x="314" y="277"/>
      <point x="368" y="320" type="curve"/>
      <point x="329" y="184"/>
      <point x="239" y="120"/>
      <point x="39" y="120" type="curve"/>
    </contour>
    <contour>
      <point x="244" y="376" type="curve" smooth="yes"/>
      <point x="158" y="376"/>
      <point x="115" y="432"/>
      <point x="131" y="519" type="curve" smooth="yes"/>
      <point x="146" y="608"/>
      <point x="214" y="670"/>
      <point x="292" y="670" type="curve" smooth="yes"/>
      <point x="372" y="670"/>
      <point x="422" y="618"/>
      <point x="403" y="507" type="curve" smooth="yes"/>
      <point x="392" y="447" type="line"/>
      <point x="356" y="400"/>
      <point x="306" y="376"/>
    </contour>
  </outline>
</glyph>
<glyph name="nye-ethiopic.liga" format="2">
  <advance width="1067"/>
  <anchor x="511" y="8" name="haa.acute"/>
  <anchor x="660" y="1663" name="hat.caps"/>
  <anchor x="116" y="1305" name="he.ring.uniq"/>
  <anchor x="484" y="11" name="hee"/>
  <anchor x="646" y="88" name="hi"/>
  <anchor x="456" y="1464" name="ho"/>
  <anchor x="499" y="1315" name="ho.ring"/>
  <anchor x="782" y="955" name="hu"/>
  <anchor x="421" y="1463" name="neck.caps"/>
  <anchor x="199" y="1442" name="neck.left.caps"/>
  <anchor x="134" y="1625" name="nose"/>
  <outline>
    <contour>
      <point x="582" y="-370" type="line"/>
      <point x="724" y="-375" type="line"/>
      <point x="822" y="308" type="line"/>
      <point x="678" y="304" type="line"/>
    </contour>
    <component base="ga.base.cap"/>
    <component base="_smart.hat.caps" xOffset="420" yOffset="-80"/>
  </outline>
</glyph>
<glyph name="paa-ethiopic.liga" format="2">
  <advance width="1222"/>
  <anchor x="402" y="91" name="_haa.acute"/>
  <anchor x="600" y="15" name="haa"/>
  <anchor x="401" y="16" name="haa.acute"/>
  <anchor x="971" y="1636" name="hat.caps"/>
  <anchor x="655" y="1511" name="he.acute.top"/>
  <anchor x="462" y="52" name="hee"/>
  <anchor x="528" y="114" name="hi"/>
  <anchor x="1035" y="1581" name="ho.ring"/>
  <anchor x="691" y="983" name="hu"/>
  <anchor x="416" y="-52" name="hwa"/>
  <anchor x="680" y="1532" name="neck.caps"/>
  <outline>
    <contour>
      <point x="-47" y="105" type="line"/>
      <point x="14" y="0" type="line"/>
      <point x="472" y="0" type="line" name="❌"/>
      <point x="357" y="105" type="line" name="❌"/>
    </contour>
    <component base="pa.base.cap"/>
  </outline>
</glyph>
<glyph name="ra.base" format="2">
  <advance width="1166"/>
  <anchor x="598" y="101" name="fa"/>
  <anchor x="569" y="-63" name="haa"/>
  <anchor x="624" y="-51" name="haa.acute"/>
  <anchor x="621" y="961" name="hat"/>
  <anchor x="364.375" y="1041" name="hat.left"/>
  <anchor x="1040" y="679" name="hee"/>
  <anchor x="1112" y="900" name="ho.ring"/>
  <anchor x="534" y="4" name="hwa"/>
  <anchor x="1008.129" y="305" name="ra"/>
  <anchor x="608" y="305" name="raa"/>
  <anchor x="867" y="284" name="ri"/>
  <outline>
    <contour>
      <point x="403" y="-20" type="curve" smooth="yes"/>
      <point x="605" y="-20"/>
      <point x="832" y="127"/>
      <point x="938" y="295" type="curve"/>
      <point x="830" y="295" type="line"/>
      <point x="764" y="205"/>
      <point x="561" y="131"/>
      <point x="429" y="131" type="curve" smooth="yes"/>
      <point x="278" y="131"/>
      <point x="254" y="255"/>
      <point x="300" y="517" type="curve" smooth="yes"/>
      <point x="400" y="1082" type="line"/>
      <point x="215" y="1082" type="line"/>
      <point x="117" y="524" type="line" smooth="yes"/>
      <point x="58" y="187"/>
      <point x="110" y="-20"/>
    </contour>
  </outline>
</glyph>
<glyph name="three.frac0" format="2">
  <advance width="751"/>
  <note>
glyph00543
</note>
  <outline>
    <contour>
      <point x="167" y="-11" type="curve" smooth="yes"/>
      <point x="349" y="-11"/>
      <point x="489" y="79"/>
      <point x="514" y="220" type="curve" smooth="yes"/>
      <point x="531" y="315"/>
      <point x="492" y="377"/>
      <point x="397" y="404" type="curve"/>
      <point x="491" y="437"/>
      <point x="551" y="502"/>
      <point x="564" y="575" type="curve" smooth="yes"/>
      <point x="588" y="714"/>
      <point x="493" y="800"/>
      <point x="310" y="800" type="curve" smooth="yes"/>
      <point x="145" y="800"/>
      <point x="7" y="710"/>
      <point x="-16" y="579" type="curve"/>
      <point x="141" y="579" type="line"/>
      <point x="151" y="634"/>
      <point x="214" y="671"/>
      <point x="290" y="671" type="curve" smooth="yes"/>
      <point x="383" y="671"/>
      <point x="415" y="628"/>
      <point x="404" y="568" type="curve" smooth="yes"/>
      <point x="393" y="504"/>
      <point x="338" y="459"/>
      <point x="239" y="459" type="curve" smooth="yes"/>
      <point x="155" y="459" type="line"/>
      <point x="135" y="343" type="line"/>
      <point x="223" y="343" type="line" smooth="yes"/>
      <point x="326" y="342"/>
      <point x="372" y="303"/>
      <point x="358" y="228" type="curve" smooth="yes"/>
      <point x="346" y="160"/>
      <point x="289" y="117"/>
      <point x="196" y="117" type="curve" smooth="yes"/>
      <point x="107" y="117"/>
      <point x="58" y="162"/>
      <point x="68" y="222" type="curve"/>
      <point x="-90" y="222" type="line"/>
      <point x="-115" y="79"/>
      <point x="-9" y="-11"/>
    </contour>
  </outline>
</glyph>
<glyph name="ya.base" format="2">
  <advance width="1131"/>
  <anchor x="-112" y="154" name="da"/>
  <anchor x="593" y="-139" name="di"/>
  <anchor x="601" y="234" name="du"/>
  <anchor x="621" y="-10" name="haa"/>
  <anchor x="317" y="-66" name="haa.acute"/>
  <anchor x="686" y="1361" name="hat"/>
  <anchor x="1216" y="756" name="he"/>
  <anchor x="433" y="1080" name="he.left.outer"/>
  <anchor x="759" y="23" name="hee"/>
  <anchor x="689" y="11" name="hha"/>
  <anchor x="500" y="-270" name="hi"/>
  <anchor x="-15" y="-10" name="ho"/>
  <anchor x="545" y="309" name="hu"/>
  <anchor x="585" y="-20" name="hwa"/>
  <anchor x="682" y="1112" name="neck"/>
  <anchor x="62" y="74" name="ye"/>
  <anchor x="323" y="280" name="yee"/>
  <anchor x="239.636" y="381" name="yi"/>
  <anchor x="270" y="305" name="yu"/>
  <outline>
    <contour>
      <point x="148" y="0" type="line"/>
      <point x="333" y="0" type="line"/>
      <point x="269" y="488" type="line"/>
      <point x="843" y="488" type="line" smooth="yes"/>
      <point x="894" y="488"/>
      <point x="938" y="519"/>
      <point x="952" y="565" type="curve" smooth="yes"/>
      <point x="1057" y="907"/>
      <point x="943" y="1102"/>
      <point x="662" y="1102" type="curve" smooth="yes"/>
      <point x="490" y="1102"/>
      <point x="315" y="1001"/>
      <point x="204" y="833" type="curve" smooth="yes"/>
      <point x="148" y="748"/>
      <point x="90" y="619"/>
      <point x="100" y="512" type="curve" smooth="yes"/>
    </contour>
    <contour>
      <point x="297" y="630" type="line"/>
      <point x="357" y="836"/>
      <point x="486" y="950"/>
      <point x="635" y="950" type="curve" smooth="yes"/>
      <point x="810" y="950"/>
      <point x="853" y="832"/>
      <point x="798" y="630" type="curve"/>
    </contour>
  </outline>
</glyph>
<glyph name="za.base" format="2">
  <advance width="1205"/>
  <anchor x="745" y="-24" name="haa"/>
  <anchor x="300" y="1182" name="he.acute.top"/>
  <anchor x="681" y="68" name="hee"/>
  <anchor x="837" y="117" name="hi"/>
  <anchor x="89" y="-9" name="ho"/>
  <anchor x="955" y="681" name="hu"/>
  <anchor x="719" y="-30" name="hwa"/>
  <anchor x="573" y="980" name="zha"/>
  <outline>
    <contour>
      <point x="9" y="0" type="line"/>
      <point x="194" y="0" type="line"/>
      <point x="286" y="521" type="line"/>
      <point x="721" y="521" type="line"/>
      <point x="629" y="0" type="line"/>
      <point x="814" y="0" type="line"/>
      <point x="1005" y="1082" type="line"/>
      <point x="820" y="1082" type="line"/>
      <point x="748" y="672" type="line"/>
      <point x="313" y="672" type="line"/>
      <point x="385" y="1082" type="line"/>
      <point x="200" y="1082" type="line"/>
    </contour>
  </outline>
</glyph>
